<svg xmlns="http://www.w3.org/2000/svg" xmlns:xlink="http://www.w3.org/1999/xlink" width="864" zoomAndPan="magnify" viewBox="0 0 648 647.999998" height="864" preserveAspectRatio="xMidYMid meet" version="1.0"><defs><clipPath id="7d4aa0c300"><path d="M 0 0 L 648 0 L 648 648 L 0 648 Z M 0 0 " clip-rule="nonzero"/></clipPath><clipPath id="8df94ae00c"><rect x="0" width="648" y="0" height="648"/></clipPath><clipPath id="51887509f7"><path d="M 396.207031 158.578125 L 489.046875 158.578125 L 489.046875 442.90625 L 396.207031 442.90625 Z M 396.207031 158.578125 " clip-rule="nonzero"/></clipPath><clipPath id="f6103f173b"><path d="M 489.046875 411.683594 L 489.046875 158.578125 L 396.207031 189.527344 L 396.207031 442.632812 Z M 489.046875 411.683594 " clip-rule="nonzero"/></clipPath><clipPath id="c69531bd03"><path d="M 0.207031 0.578125 L 93.046875 0.578125 L 93.046875 284.800781 L 0.207031 284.800781 Z M 0.207031 0.578125 " clip-rule="nonzero"/></clipPath><clipPath id="7e112b77ab"><path d="M 93.046875 253.683594 L 93.046875 0.578125 L 0.207031 31.527344 L 0.207031 284.632812 Z M 93.046875 253.683594 " clip-rule="nonzero"/></clipPath><clipPath id="dc67925546"><rect x="0" width="94" y="0" height="285"/></clipPath><clipPath id="d6b7727291"><path d="M 158.945312 158.300781 L 251.789062 158.300781 L 251.789062 442.625 L 158.945312 442.625 Z M 158.945312 158.300781 " clip-rule="nonzero"/></clipPath><clipPath id="1184d63d1c"><path d="M 158.945312 411.679688 L 158.945312 158.574219 L 251.789062 189.519531 L 251.789062 442.625 Z M 158.945312 411.679688 " clip-rule="nonzero"/></clipPath><clipPath id="dc43a54e54"><path d="M 0.945312 0.398438 L 93.789062 0.398438 L 93.789062 284.625 L 0.945312 284.625 Z M 0.945312 0.398438 " clip-rule="nonzero"/></clipPath><clipPath id="e45a72104a"><path d="M 0.945312 253.679688 L 0.945312 0.574219 L 93.789062 31.519531 L 93.789062 284.625 Z M 0.945312 253.679688 " clip-rule="nonzero"/></clipPath><clipPath id="c7d28b9a39"><rect x="0" width="94" y="0" height="285"/></clipPath><clipPath id="87dfb125ac"><path d="M 281.816406 262.683594 L 366.183594 262.683594 L 366.183594 442.625 L 281.816406 442.625 Z M 281.816406 262.683594 " clip-rule="nonzero"/></clipPath><clipPath id="e278197304"><path d="M 281.816406 293.675781 L 281.816406 442.625 L 366.183594 411.679688 L 366.183594 262.730469 Z M 281.816406 293.675781 " clip-rule="nonzero"/></clipPath><clipPath id="cbedc499f2"><path d="M 0.816406 0.683594 L 85.183594 0.683594 L 85.183594 180.625 L 0.816406 180.625 Z M 0.816406 0.683594 " clip-rule="nonzero"/></clipPath><clipPath id="8c9c1508f4"><path d="M 0.816406 31.675781 L 0.816406 180.625 L 85.183594 149.679688 L 85.183594 0.730469 Z M 0.816406 31.675781 " clip-rule="nonzero"/></clipPath><clipPath id="2f837c2d29"><rect x="0" width="86" y="0" height="181"/></clipPath><clipPath id="778db4496c"><path d="M 158.921875 377.042969 L 489.046875 377.042969 L 489.046875 488.683594 L 158.921875 488.683594 Z M 158.921875 377.042969 " clip-rule="nonzero"/></clipPath><clipPath id="5b271587eb"><path d="M 489.046875 457.738281 L 489.046875 377.042969 L 158.945312 407.988281 L 158.945312 488.683594 Z M 489.046875 457.738281 " clip-rule="nonzero"/></clipPath><clipPath id="d01ab60541"><path d="M 0.921875 0.0429688 L 331.046875 0.0429688 L 331.046875 111.683594 L 0.921875 111.683594 Z M 0.921875 0.0429688 " clip-rule="nonzero"/></clipPath><clipPath id="cb1e3b00c4"><path d="M 331.046875 80.738281 L 331.046875 0.0429688 L 0.945312 30.988281 L 0.945312 111.683594 Z M 331.046875 80.738281 " clip-rule="nonzero"/></clipPath><clipPath id="e1a456d008"><rect x="0" width="332" y="0" height="112"/></clipPath><clipPath id="d6cfeaf3db"><rect x="0" width="648" y="0" height="648"/></clipPath></defs><rect x="-64.8" width="777.6" fill="#ffffff" y="-64.8" height="777.599998" fill-opacity="1"/><g transform="matrix(1, 0, 0, 1, 0, 0.00000000000003717)"><g clip-path="url(#d6cfeaf3db)"><g transform="matrix(1, 0, 0, 1, 0, 0.00000000000003717)"><g clip-path="url(#8df94ae00c)"><g clip-path="url(#7d4aa0c300)"><rect x="-235.872" width="1119.744" fill="#101554" y="-235.871999" height="1119.743997" fill-opacity="1"/></g></g></g><g clip-path="url(#51887509f7)"><g clip-path="url(#f6103f173b)"><g transform="matrix(1, 0, 0, 1, 396, 158)"><g clip-path="url(#dc67925546)"><g clip-path="url(#c69531bd03)"><g clip-path="url(#7e112b77ab)"><path fill="#ffffff" d="M 93.046875 0.578125 L 93.046875 284.542969 L 0.207031 284.542969 L 0.207031 0.578125 Z M 93.046875 0.578125 " fill-opacity="1" fill-rule="nonzero"/></g></g></g></g></g></g><g clip-path="url(#d6b7727291)"><g clip-path="url(#1184d63d1c)"><g transform="matrix(1, 0, 0, 1, 158, 158)"><g clip-path="url(#c7d28b9a39)"><g clip-path="url(#dc43a54e54)"><g clip-path="url(#e45a72104a)"><path fill="#ffffff" d="M 0.945312 284.625 L 0.945312 0.660156 L 93.789062 0.660156 L 93.789062 284.625 Z M 0.945312 284.625 " fill-opacity="1" fill-rule="nonzero"/></g></g></g></g></g></g><g clip-path="url(#87dfb125ac)"><g clip-path="url(#e278197304)"><g transform="matrix(1, 0, 0, 1, 281, 262)"><g clip-path="url(#2f837c2d29)"><g clip-path="url(#cbedc499f2)"><g clip-path="url(#8c9c1508f4)"><path fill="#ffffff" d="M 0.816406 180.625 L 0.816406 0.683594 L 85.183594 0.683594 L 85.183594 180.625 Z M 0.816406 180.625 " fill-opacity="1" fill-rule="nonzero"/></g></g></g></g></g></g><g clip-path="url(#778db4496c)"><g clip-path="url(#5b271587eb)"><g transform="matrix(1, 0, 0, 1, 158, 377)"><g clip-path="url(#e1a456d008)"><g clip-path="url(#d01ab60541)"><g clip-path="url(#cb1e3b00c4)"><path fill="#ffffff" d="M 331.046875 0.0429688 L 331.046875 111.683594 L 0.921875 111.683594 L 0.921875 0.0429688 Z M 331.046875 0.0429688 " fill-opacity="1" fill-rule="nonzero"/></g></g></g></g></g></g></g></g></svg>